<svg width="297" height="316" viewBox="0 0 297 316" fill="none" xmlns="http://www.w3.org/2000/svg">
<g filter="url(#filter0_i_4_104)">
<circle cx="189" cy="109" r="73" fill="#FFAB0B"/>
</g>
<circle cx="188.5" cy="108.5" r="100.5" stroke="#FFE200" stroke-width="16" stroke-linecap="round" stroke-dasharray="1 70"/>
<g filter="url(#filter1_bdi_4_104)">
<path fill-rule="evenodd" clip-rule="evenodd" d="M200 238H78V237.989C77.6675 237.996 77.3342 238 77 238C52.1472 238 32 217.853 32 193C32 176.134 41.2787 161.435 55.0099 153.73C55.0033 153.321 55 152.911 55 152.5C55 111.355 88.3548 78 129.5 78C164.991 78 194.686 102.818 202.177 136.046C229.334 137.186 251 159.563 251 187C251 214.832 228.705 237.458 201 237.99V238H200Z" fill="url(#paint0_radial_4_104)" fill-opacity="0.77"/>
</g>
<g style="mix-blend-mode:soft-light" filter="url(#filter2_di_4_104)">
<circle cx="77" cy="193" r="45" fill="#848484"/>
</g>
<path d="M122.523 267.551L127 238H155L149.888 259.3C149.435 261.186 150.865 263 152.805 263H155.424C157.814 263 159.244 265.659 157.927 267.653L126 316L136.994 274.773C137.502 272.868 136.066 271 134.095 271H125.489C123.653 271 122.248 269.366 122.523 267.551Z" fill="url(#paint1_linear_4_104)"/>
<mask id="mask0_4_104" style="mask-type:alpha" maskUnits="userSpaceOnUse" x="32" y="78" width="219" height="160">
<path fill-rule="evenodd" clip-rule="evenodd" d="M78 237.989C77.6675 237.996 77.3342 238 77 238C52.1472 238 32 217.853 32 193C32 176.134 41.2787 161.435 55.0099 153.73C55.0033 153.321 55 152.911 55 152.5C55 111.355 88.3548 78 129.5 78C164.991 78 194.686 102.818 202.177 136.046C229.334 137.186 251 159.563 251 187C251 215.167 228.167 238 200 238C198.654 238 197.32 237.948 196 237.845V238H78V237.989Z" fill="url(#paint2_radial_4_104)" fill-opacity="0.77"/>
</mask>
<g mask="url(#mask0_4_104)">
<g filter="url(#filter3_f_4_104)">
<path d="M139 200C112.544 219.479 88.5142 233.005 73 238H210C193.343 238 158.189 211.55 139 200Z" fill="url(#paint3_radial_4_104)"/>
</g>
<g style="mix-blend-mode:screen" filter="url(#filter4_f_4_104)">
<path d="M145 183C128.284 192.573 104.802 237.545 95 240H195C184.475 240 157.124 188.677 145 183Z" fill="url(#paint4_linear_4_104)"/>
</g>
<g style="mix-blend-mode:screen" filter="url(#filter5_f_4_104)">
<path d="M141 195C129.781 201.402 113.579 238.358 107 240L174 238C166.936 238 149.137 198.796 141 195Z" fill="url(#paint5_linear_4_104)"/>
</g>
</g>
<defs>
<filter id="filter0_i_4_104" x="106" y="36" width="156" height="159" filterUnits="userSpaceOnUse" color-interpolation-filters="sRGB">
<feFlood flood-opacity="0" result="BackgroundImageFix"/>
<feBlend mode="normal" in="SourceGraphic" in2="BackgroundImageFix" result="shape"/>
<feColorMatrix in="SourceAlpha" type="matrix" values="0 0 0 0 0 0 0 0 0 0 0 0 0 0 0 0 0 0 127 0" result="hardAlpha"/>
<feOffset dx="-10" dy="13"/>
<feGaussianBlur stdDeviation="12"/>
<feComposite in2="hardAlpha" operator="arithmetic" k2="-1" k3="1"/>
<feColorMatrix type="matrix" values="0 0 0 0 1 0 0 0 0 0.886275 0 0 0 0 0 0 0 0 0.9 0"/>
<feBlend mode="normal" in2="shape" result="effect1_innerShadow_4_104"/>
</filter>
<filter id="filter1_bdi_4_104" x="0" y="62" width="283" height="224" filterUnits="userSpaceOnUse" color-interpolation-filters="sRGB">
<feFlood flood-opacity="0" result="BackgroundImageFix"/>
<feGaussianBlur in="BackgroundImageFix" stdDeviation="8"/>
<feComposite in2="SourceAlpha" operator="in" result="effect1_backgroundBlur_4_104"/>
<feColorMatrix in="SourceAlpha" type="matrix" values="0 0 0 0 0 0 0 0 0 0 0 0 0 0 0 0 0 0 127 0" result="hardAlpha"/>
<feOffset dy="16"/>
<feGaussianBlur stdDeviation="16"/>
<feColorMatrix type="matrix" values="0 0 0 0 0 0 0 0 0 0.2015 0 0 0 0 0.3875 0 0 0 0.2 0"/>
<feBlend mode="normal" in2="effect1_backgroundBlur_4_104" result="effect2_dropShadow_4_104"/>
<feBlend mode="normal" in="SourceGraphic" in2="effect2_dropShadow_4_104" result="shape"/>
<feColorMatrix in="SourceAlpha" type="matrix" values="0 0 0 0 0 0 0 0 0 0 0 0 0 0 0 0 0 0 127 0" result="hardAlpha"/>
<feOffset dx="1" dy="2"/>
<feGaussianBlur stdDeviation="7"/>
<feComposite in2="hardAlpha" operator="arithmetic" k2="-1" k3="1"/>
<feColorMatrix type="matrix" values="0 0 0 0 1 0 0 0 0 1 0 0 0 0 1 0 0 0 1 0"/>
<feBlend mode="normal" in2="shape" result="effect3_innerShadow_4_104"/>
</filter>
<filter id="filter2_di_4_104" x="24" y="132" width="120" height="118" filterUnits="userSpaceOnUse" color-interpolation-filters="sRGB">
<feFlood flood-opacity="0" result="BackgroundImageFix"/>
<feColorMatrix in="SourceAlpha" type="matrix" values="0 0 0 0 0 0 0 0 0 0 0 0 0 0 0 0 0 0 127 0" result="hardAlpha"/>
<feOffset dx="-2" dy="-10"/>
<feGaussianBlur stdDeviation="3"/>
<feColorMatrix type="matrix" values="0 0 0 0 0 0 0 0 0 0 0 0 0 0 0 0 0 0 0.22 0"/>
<feBlend mode="normal" in2="BackgroundImageFix" result="effect1_dropShadow_4_104"/>
<feBlend mode="normal" in="SourceGraphic" in2="effect1_dropShadow_4_104" result="shape"/>
<feColorMatrix in="SourceAlpha" type="matrix" values="0 0 0 0 0 0 0 0 0 0 0 0 0 0 0 0 0 0 127 0" result="hardAlpha"/>
<feOffset dx="22" dy="12"/>
<feGaussianBlur stdDeviation="11"/>
<feComposite in2="hardAlpha" operator="arithmetic" k2="-1" k3="1"/>
<feColorMatrix type="matrix" values="0 0 0 0 1 0 0 0 0 1 0 0 0 0 1 0 0 0 0.74 0"/>
<feBlend mode="normal" in2="shape" result="effect2_innerShadow_4_104"/>
</filter>
<filter id="filter3_f_4_104" x="65" y="192" width="153" height="54" filterUnits="userSpaceOnUse" color-interpolation-filters="sRGB">
<feFlood flood-opacity="0" result="BackgroundImageFix"/>
<feBlend mode="normal" in="SourceGraphic" in2="BackgroundImageFix" result="shape"/>
<feGaussianBlur stdDeviation="4" result="effect1_foregroundBlur_4_104"/>
</filter>
<filter id="filter4_f_4_104" x="91" y="179" width="108" height="65" filterUnits="userSpaceOnUse" color-interpolation-filters="sRGB">
<feFlood flood-opacity="0" result="BackgroundImageFix"/>
<feBlend mode="normal" in="SourceGraphic" in2="BackgroundImageFix" result="shape"/>
<feGaussianBlur stdDeviation="2" result="effect1_foregroundBlur_4_104"/>
</filter>
<filter id="filter5_f_4_104" x="103" y="191" width="75" height="53" filterUnits="userSpaceOnUse" color-interpolation-filters="sRGB">
<feFlood flood-opacity="0" result="BackgroundImageFix"/>
<feBlend mode="normal" in="SourceGraphic" in2="BackgroundImageFix" result="shape"/>
<feGaussianBlur stdDeviation="2" result="effect1_foregroundBlur_4_104"/>
</filter>
<radialGradient id="paint0_radial_4_104" cx="0" cy="0" r="1" gradientUnits="userSpaceOnUse" gradientTransform="translate(109.164 112.114) rotate(90.6693) scale(125.829 143.587)">
<stop stop-color="white"/>
<stop offset="1" stop-color="#99CEFF"/>
</radialGradient>
<linearGradient id="paint1_linear_4_104" x1="144.067" y1="238" x2="144.067" y2="290" gradientUnits="userSpaceOnUse">
<stop stop-color="#E2BC38"/>
<stop offset="1" stop-color="#FFE244"/>
</linearGradient>
<radialGradient id="paint2_radial_4_104" cx="0" cy="0" r="1" gradientUnits="userSpaceOnUse" gradientTransform="translate(109.164 112.114) rotate(90.6693) scale(125.829 143.587)">
<stop stop-color="white"/>
<stop offset="1" stop-color="#99CEFF"/>
</radialGradient>
<radialGradient id="paint3_radial_4_104" cx="0" cy="0" r="1" gradientUnits="userSpaceOnUse" gradientTransform="translate(151.889 233.786) rotate(-90) scale(21.5393 111.274)">
<stop stop-color="#FFDE41"/>
<stop offset="1" stop-color="#FFD200" stop-opacity="0"/>
</radialGradient>
<linearGradient id="paint4_linear_4_104" x1="147.688" y1="238.888" x2="147.688" y2="231.542" gradientUnits="userSpaceOnUse">
<stop stop-color="#FFDE41"/>
<stop offset="1" stop-color="#FFD200" stop-opacity="0"/>
</linearGradient>
<linearGradient id="paint5_linear_4_104" x1="142.361" y1="239.224" x2="142.361" y2="229.077" gradientUnits="userSpaceOnUse">
<stop stop-color="#FFDE41"/>
<stop offset="1" stop-color="#FFD200" stop-opacity="0"/>
</linearGradient>
</defs>
</svg>
