<svg width="283" height="254" viewBox="0 0 283 254" fill="none" xmlns="http://www.w3.org/2000/svg">
<path d="M122.523 205.551L127 176H155L149.888 197.3C149.435 199.186 150.865 201 152.805 201H155.424C157.814 201 159.244 203.659 157.927 205.653L126 254L136.994 212.773C137.502 210.868 136.066 209 134.095 209H125.489C123.653 209 122.248 207.366 122.523 205.551Z" fill="url(#paint0_linear_4_22)"/>
<g filter="url(#filter0_bdi_4_22)">
<path fill-rule="evenodd" clip-rule="evenodd" d="M200 176H78V175.989C77.6675 175.996 77.3342 176 77 176C52.1472 176 32 155.853 32 131C32 114.134 41.2787 99.4352 55.0099 91.7296C55.0033 91.3205 55 90.9107 55 90.5C55 49.3548 88.3548 16 129.5 16C164.991 16 194.686 40.8177 202.177 74.0456C229.334 75.186 251 97.5628 251 125C251 152.497 229.24 174.911 202 175.962V176H200Z" fill="url(#paint1_radial_4_22)" fill-opacity="0.77"/>
</g>
<g style="mix-blend-mode:soft-light" filter="url(#filter1_di_4_22)">
<circle cx="77" cy="131" r="45" fill="#848484"/>
</g>
<mask id="mask0_4_22" style="mask-type:alpha" maskUnits="userSpaceOnUse" x="32" y="16" width="219" height="160">
<path fill-rule="evenodd" clip-rule="evenodd" d="M200 176H78V175.989C77.6675 175.996 77.3342 176 77 176C52.1472 176 32 155.853 32 131C32 114.134 41.2787 99.4352 55.0099 91.7296C55.0033 91.3205 55 90.9107 55 90.5C55 49.3548 88.3548 16 129.5 16C164.991 16 194.686 40.8177 202.177 74.0456C229.334 75.186 251 97.5628 251 125C251 151.137 231.339 172.681 206 175.651V176H200Z" fill="url(#paint2_radial_4_22)" fill-opacity="0.77"/>
</mask>
<g mask="url(#mask0_4_22)">
<g filter="url(#filter2_f_4_22)">
<path d="M139 138C112.544 157.479 88.5142 171.005 73 176H210C193.343 176 158.189 149.55 139 138Z" fill="url(#paint3_radial_4_22)"/>
</g>
<g style="mix-blend-mode:screen" filter="url(#filter3_f_4_22)">
<path d="M145 121C128.284 130.573 104.802 175.545 95 178H195C184.475 178 157.124 126.677 145 121Z" fill="url(#paint4_linear_4_22)"/>
</g>
<g style="mix-blend-mode:screen" filter="url(#filter4_f_4_22)">
<path d="M141 133C129.781 139.402 113.579 176.358 107 178L174 176C166.936 176 149.137 136.796 141 133Z" fill="url(#paint5_linear_4_22)"/>
</g>
</g>
<path d="M95.069 186.91C96.0032 186.025 97.5464 186.587 97.6935 187.865L98.8915 198.271C99.4695 203.292 94.5621 207.165 89.8133 205.437V205.437C85.0644 203.708 83.7944 197.586 87.4639 194.111L95.069 186.91Z" fill="url(#paint6_linear_4_22)"/>
<path d="M111.335 218.373C112.185 217.568 113.588 218.079 113.721 219.241L114.81 228.701C115.336 233.265 110.875 236.787 106.558 235.215V235.215C102.24 233.643 101.086 228.078 104.422 224.919L111.335 218.373Z" fill="url(#paint7_linear_4_22)"/>
<defs>
<filter id="filter0_bdi_4_22" x="0" y="0" width="283" height="224" filterUnits="userSpaceOnUse" color-interpolation-filters="sRGB">
<feFlood flood-opacity="0" result="BackgroundImageFix"/>
<feGaussianBlur in="BackgroundImageFix" stdDeviation="8"/>
<feComposite in2="SourceAlpha" operator="in" result="effect1_backgroundBlur_4_22"/>
<feColorMatrix in="SourceAlpha" type="matrix" values="0 0 0 0 0 0 0 0 0 0 0 0 0 0 0 0 0 0 127 0" result="hardAlpha"/>
<feOffset dy="16"/>
<feGaussianBlur stdDeviation="16"/>
<feColorMatrix type="matrix" values="0 0 0 0 0 0 0 0 0 0.2015 0 0 0 0 0.3875 0 0 0 0.2 0"/>
<feBlend mode="normal" in2="effect1_backgroundBlur_4_22" result="effect2_dropShadow_4_22"/>
<feBlend mode="normal" in="SourceGraphic" in2="effect2_dropShadow_4_22" result="shape"/>
<feColorMatrix in="SourceAlpha" type="matrix" values="0 0 0 0 0 0 0 0 0 0 0 0 0 0 0 0 0 0 127 0" result="hardAlpha"/>
<feOffset dx="1" dy="2"/>
<feGaussianBlur stdDeviation="7"/>
<feComposite in2="hardAlpha" operator="arithmetic" k2="-1" k3="1"/>
<feColorMatrix type="matrix" values="0 0 0 0 1 0 0 0 0 1 0 0 0 0 1 0 0 0 1 0"/>
<feBlend mode="normal" in2="shape" result="effect3_innerShadow_4_22"/>
</filter>
<filter id="filter1_di_4_22" x="24" y="70" width="120" height="118" filterUnits="userSpaceOnUse" color-interpolation-filters="sRGB">
<feFlood flood-opacity="0" result="BackgroundImageFix"/>
<feColorMatrix in="SourceAlpha" type="matrix" values="0 0 0 0 0 0 0 0 0 0 0 0 0 0 0 0 0 0 127 0" result="hardAlpha"/>
<feOffset dx="-2" dy="-10"/>
<feGaussianBlur stdDeviation="3"/>
<feColorMatrix type="matrix" values="0 0 0 0 0 0 0 0 0 0 0 0 0 0 0 0 0 0 0.22 0"/>
<feBlend mode="normal" in2="BackgroundImageFix" result="effect1_dropShadow_4_22"/>
<feBlend mode="normal" in="SourceGraphic" in2="effect1_dropShadow_4_22" result="shape"/>
<feColorMatrix in="SourceAlpha" type="matrix" values="0 0 0 0 0 0 0 0 0 0 0 0 0 0 0 0 0 0 127 0" result="hardAlpha"/>
<feOffset dx="22" dy="12"/>
<feGaussianBlur stdDeviation="11"/>
<feComposite in2="hardAlpha" operator="arithmetic" k2="-1" k3="1"/>
<feColorMatrix type="matrix" values="0 0 0 0 1 0 0 0 0 1 0 0 0 0 1 0 0 0 0.74 0"/>
<feBlend mode="normal" in2="shape" result="effect2_innerShadow_4_22"/>
</filter>
<filter id="filter2_f_4_22" x="65" y="130" width="153" height="54" filterUnits="userSpaceOnUse" color-interpolation-filters="sRGB">
<feFlood flood-opacity="0" result="BackgroundImageFix"/>
<feBlend mode="normal" in="SourceGraphic" in2="BackgroundImageFix" result="shape"/>
<feGaussianBlur stdDeviation="4" result="effect1_foregroundBlur_4_22"/>
</filter>
<filter id="filter3_f_4_22" x="91" y="117" width="108" height="65" filterUnits="userSpaceOnUse" color-interpolation-filters="sRGB">
<feFlood flood-opacity="0" result="BackgroundImageFix"/>
<feBlend mode="normal" in="SourceGraphic" in2="BackgroundImageFix" result="shape"/>
<feGaussianBlur stdDeviation="2" result="effect1_foregroundBlur_4_22"/>
</filter>
<filter id="filter4_f_4_22" x="103" y="129" width="75" height="53" filterUnits="userSpaceOnUse" color-interpolation-filters="sRGB">
<feFlood flood-opacity="0" result="BackgroundImageFix"/>
<feBlend mode="normal" in="SourceGraphic" in2="BackgroundImageFix" result="shape"/>
<feGaussianBlur stdDeviation="2" result="effect1_foregroundBlur_4_22"/>
</filter>
<linearGradient id="paint0_linear_4_22" x1="144.067" y1="176" x2="144.067" y2="228" gradientUnits="userSpaceOnUse">
<stop stop-color="#E2BC38"/>
<stop offset="1" stop-color="#FFE244"/>
</linearGradient>
<radialGradient id="paint1_radial_4_22" cx="0" cy="0" r="1" gradientUnits="userSpaceOnUse" gradientTransform="translate(109.164 50.1144) rotate(90.6693) scale(125.829 143.587)">
<stop stop-color="white"/>
<stop offset="1" stop-color="#99CEFF"/>
</radialGradient>
<radialGradient id="paint2_radial_4_22" cx="0" cy="0" r="1" gradientUnits="userSpaceOnUse" gradientTransform="translate(109.164 50.1144) rotate(90.6693) scale(125.829 143.587)">
<stop stop-color="white"/>
<stop offset="1" stop-color="#99CEFF"/>
</radialGradient>
<radialGradient id="paint3_radial_4_22" cx="0" cy="0" r="1" gradientUnits="userSpaceOnUse" gradientTransform="translate(151.889 171.786) rotate(-90) scale(21.5393 111.274)">
<stop stop-color="#FFDE41"/>
<stop offset="1" stop-color="#FFD200" stop-opacity="0"/>
</radialGradient>
<linearGradient id="paint4_linear_4_22" x1="147.688" y1="176.888" x2="147.688" y2="169.542" gradientUnits="userSpaceOnUse">
<stop stop-color="#FFDE41"/>
<stop offset="1" stop-color="#FFD200" stop-opacity="0"/>
</linearGradient>
<linearGradient id="paint5_linear_4_22" x1="142.361" y1="177.224" x2="142.361" y2="167.077" gradientUnits="userSpaceOnUse">
<stop stop-color="#FFDE41"/>
<stop offset="1" stop-color="#FFD200" stop-opacity="0"/>
</linearGradient>
<linearGradient id="paint6_linear_4_22" x1="97.3364" y1="184.763" x2="89.8106" y2="205.436" gradientUnits="userSpaceOnUse">
<stop stop-color="#00D0E2"/>
<stop offset="1" stop-color="#00A3FF"/>
</linearGradient>
<linearGradient id="paint7_linear_4_22" x1="113.397" y1="216.421" x2="106.555" y2="235.214" gradientUnits="userSpaceOnUse">
<stop stop-color="#00D0E2"/>
<stop offset="1" stop-color="#00A3FF"/>
</linearGradient>
</defs>
</svg>
