<svg width="283" height="224" viewBox="0 0 283 224" fill="none" xmlns="http://www.w3.org/2000/svg">
<g filter="url(#filter0_bdi_4_57)">
<path fill-rule="evenodd" clip-rule="evenodd" d="M78 175.989C77.6675 175.996 77.3342 176 77 176C52.1472 176 32 155.853 32 131C32 114.134 41.2787 99.4352 55.0099 91.7296C55.0033 91.3205 55 90.9107 55 90.5C55 49.3548 88.3548 16 129.5 16C164.991 16 194.686 40.8177 202.177 74.0456C229.334 75.186 251 97.5628 251 125C251 153.167 228.167 176 200 176C199.666 176 199.333 175.997 199 175.99V176H78V175.989Z" fill="url(#paint0_radial_4_57)" fill-opacity="0.77"/>
</g>
<g style="mix-blend-mode:soft-light" filter="url(#filter1_di_4_57)">
<circle cx="77" cy="131" r="45" fill="#848484"/>
</g>
<line x1="142.25" y1="130.25" x2="142.25" y2="220.75" stroke="white" stroke-width="4.5" stroke-linecap="round"/>
<path d="M131 137L142 148L152 137" stroke="white" stroke-width="4.5" stroke-linecap="round"/>
<path d="M152 219L141 208L131 219" stroke="white" stroke-width="4.5" stroke-linecap="round"/>
<path d="M137 154L142 159L147 154" stroke="white" stroke-width="4.5" stroke-linecap="round"/>
<path d="M146 203L141 198L136 203" stroke="white" stroke-width="4.5" stroke-linecap="round"/>
<line x1="186.75" y1="176.25" x2="96.25" y2="176.25" stroke="white" stroke-width="4.5" stroke-linecap="round"/>
<path d="M180 165L169 176L180 186" stroke="white" stroke-width="4.5" stroke-linecap="round"/>
<path d="M98 186L109 175L98 165" stroke="white" stroke-width="4.5" stroke-linecap="round"/>
<path d="M163 171L158 176L163 181" stroke="white" stroke-width="4.5" stroke-linecap="round"/>
<path d="M114 180L119 175L114 170" stroke="white" stroke-width="4.5" stroke-linecap="round"/>
<line x1="174" y1="143.182" x2="110.007" y2="207.175" stroke="white" stroke-width="4.5" stroke-linecap="round"/>
<path d="M161 141V156.556L175.849 155.849" stroke="white" stroke-width="4.5" stroke-linecap="round"/>
<path d="M118 213L118 197.444L103.151 198.151" stroke="white" stroke-width="4.5" stroke-linecap="round"/>
<path d="M154 156V163.071H161.071" stroke="white" stroke-width="4.5" stroke-linecap="round"/>
<path d="M126 198L126 190.929L118.929 190.929" stroke="white" stroke-width="4.5" stroke-linecap="round"/>
<line x1="173.818" y1="208" x2="109.825" y2="144.007" stroke="white" stroke-width="4.5" stroke-linecap="round"/>
<path d="M176 195H160.444L161.151 209.849" stroke="white" stroke-width="4.5" stroke-linecap="round"/>
<path d="M104 152L119.556 152L118.849 137.151" stroke="white" stroke-width="4.5" stroke-linecap="round"/>
<path d="M161 188H153.929V195.071" stroke="white" stroke-width="4.5" stroke-linecap="round"/>
<path d="M119 160L126.071 160L126.071 152.929" stroke="white" stroke-width="4.5" stroke-linecap="round"/>
<defs>
<filter id="filter0_bdi_4_57" x="0" y="0" width="283" height="224" filterUnits="userSpaceOnUse" color-interpolation-filters="sRGB">
<feFlood flood-opacity="0" result="BackgroundImageFix"/>
<feGaussianBlur in="BackgroundImageFix" stdDeviation="8"/>
<feComposite in2="SourceAlpha" operator="in" result="effect1_backgroundBlur_4_57"/>
<feColorMatrix in="SourceAlpha" type="matrix" values="0 0 0 0 0 0 0 0 0 0 0 0 0 0 0 0 0 0 127 0" result="hardAlpha"/>
<feOffset dy="16"/>
<feGaussianBlur stdDeviation="16"/>
<feColorMatrix type="matrix" values="0 0 0 0 0 0 0 0 0 0.2015 0 0 0 0 0.3875 0 0 0 0.2 0"/>
<feBlend mode="normal" in2="effect1_backgroundBlur_4_57" result="effect2_dropShadow_4_57"/>
<feBlend mode="normal" in="SourceGraphic" in2="effect2_dropShadow_4_57" result="shape"/>
<feColorMatrix in="SourceAlpha" type="matrix" values="0 0 0 0 0 0 0 0 0 0 0 0 0 0 0 0 0 0 127 0" result="hardAlpha"/>
<feOffset dx="1" dy="2"/>
<feGaussianBlur stdDeviation="7"/>
<feComposite in2="hardAlpha" operator="arithmetic" k2="-1" k3="1"/>
<feColorMatrix type="matrix" values="0 0 0 0 1 0 0 0 0 1 0 0 0 0 1 0 0 0 1 0"/>
<feBlend mode="normal" in2="shape" result="effect3_innerShadow_4_57"/>
</filter>
<filter id="filter1_di_4_57" x="24" y="70" width="120" height="118" filterUnits="userSpaceOnUse" color-interpolation-filters="sRGB">
<feFlood flood-opacity="0" result="BackgroundImageFix"/>
<feColorMatrix in="SourceAlpha" type="matrix" values="0 0 0 0 0 0 0 0 0 0 0 0 0 0 0 0 0 0 127 0" result="hardAlpha"/>
<feOffset dx="-2" dy="-10"/>
<feGaussianBlur stdDeviation="3"/>
<feColorMatrix type="matrix" values="0 0 0 0 0 0 0 0 0 0 0 0 0 0 0 0 0 0 0.22 0"/>
<feBlend mode="normal" in2="BackgroundImageFix" result="effect1_dropShadow_4_57"/>
<feBlend mode="normal" in="SourceGraphic" in2="effect1_dropShadow_4_57" result="shape"/>
<feColorMatrix in="SourceAlpha" type="matrix" values="0 0 0 0 0 0 0 0 0 0 0 0 0 0 0 0 0 0 127 0" result="hardAlpha"/>
<feOffset dx="22" dy="12"/>
<feGaussianBlur stdDeviation="11"/>
<feComposite in2="hardAlpha" operator="arithmetic" k2="-1" k3="1"/>
<feColorMatrix type="matrix" values="0 0 0 0 1 0 0 0 0 1 0 0 0 0 1 0 0 0 0.74 0"/>
<feBlend mode="normal" in2="shape" result="effect2_innerShadow_4_57"/>
</filter>
<radialGradient id="paint0_radial_4_57" cx="0" cy="0" r="1" gradientUnits="userSpaceOnUse" gradientTransform="translate(109.164 50.1144) rotate(90.6693) scale(125.829 143.587)">
<stop stop-color="white"/>
<stop offset="1" stop-color="#99CEFF"/>
</radialGradient>
</defs>
</svg>
